PathFileType	4	(X/Y/Z)	C:\Users\willi\Documents\UniDataLokal\DATA_Hans_PhD\TD03\3DGAIT_B_W4\marker_experimental.trc
DataRate	CameraRate	NumFrames	NumMarkers	Units	OrigDataRate	OrigDataStartFrame	OrigNumFrames
100.000000	100.000000	3	137	mm	100.000000	0	210
Frame#	Time	LFEO			LFEA			LFEL			LFEP			LFOO			LFOA			LFOL			LFOP			LTIO			LTIA			LTIL			LTIP			LTOO			LTOA			LTOL			LTOP			PELO			PELA			PELL			PELP			RFEO			RFEA			RFEL			RFEP			RFOO			RFOA			RFOL			RFOP			RTIO			RTIA			RTIL			RTIP			RTOO			RTOA			RTOL			RTOP			TRXO			TRXA			TRXL			TRXP			C7			T10			CLAV			STRN			RBAK			LASI			RASI			LPSI			RPSI			LTHI			LKNE			LMKNE			LPAT			LTUB			LTIB			LANK			LMMA			LHEE			LTOE			LD5M			RTHI			RKNE			RMKNE			RPAT			RTUB			RTIB			RANK			RMMA			RHEE			RTOE			RD5M			LTH1			LTH2			LTH3			LTB1			LTB2			LTB3			LTB4			LTB5			RTH1			RTH2			RTH3			RTB1			RTB2			RTB3			RTB4			RTB5			LIC			RIC			CentreOfMass			CentreOfMassFloor			LHipAngles			LKneeAngles			LAnkleAngles			LAbsAnkleAngle			RHipAngles			RKneeAngles			RAnkleAngles			RAbsAnkleAngle			LSpineAngles			RSpineAngles			LThoraxAngles			RThoraxAngles			LPelvisAngles			RPelvisAngles			LFootProgressAngles			RFootProgressAngles			LAnklePower			RAnklePower			LKneePower			RKneePower			LHipPower			RHipPower			LWaistPower			RWaistPower			LGroundReactionForce			RGroundReactionForce			LNormalisedGRF			RNormalisedGRF			LAnkleForce			RAnkleForce			LKneeForce			RKneeForce			LHipForce			RHipForce			LWaistForce			RWaistForce			LGroundReactionMoment			RGroundReactionMoment			LAnkleMoment			RAnkleMoment			LKneeMoment			RKneeMoment			LHipMoment			RHipMoment			LWaistMoment			RWaistMoment			
		X1	Y1	Z1	X2	Y2	Z2	X3	Y3	Z3	X4	Y4	Z4	X5	Y5	Z5	X6	Y6	Z6	X7	Y7	Z7	X8	Y8	Z8	X9	Y9	Z9	X10	Y10	Z10	X11	Y11	Z11	X12	Y12	Z12	X13	Y13	Z13	X14	Y14	Z14	X15	Y15	Z15	X16	Y16	Z16	X17	Y17	Z17	X18	Y18	Z18	X19	Y19	Z19	X20	Y20	Z20	X21	Y21	Z21	X22	Y22	Z22	X23	Y23	Z23	X24	Y24	Z24	X25	Y25	Z25	X26	Y26	Z26	X27	Y27	Z27	X28	Y28	Z28	X29	Y29	Z29	X30	Y30	Z30	X31	Y31	Z31	X32	Y32	Z32	X33	Y33	Z33	X34	Y34	Z34	X35	Y35	Z35	X36	Y36	Z36	X37	Y37	Z37	X38	Y38	Z38	X39	Y39	Z39	X40	Y40	Z40	X41	Y41	Z41	X42	Y42	Z42	X43	Y43	Z43	X44	Y44	Z44	X45	Y45	Z45	X46	Y46	Z46	X47	Y47	Z47	X48	Y48	Z48	X49	Y49	Z49	X50	Y50	Z50	X51	Y51	Z51	X52	Y52	Z52	X53	Y53	Z53	X54	Y54	Z54	X55	Y55	Z55	X56	Y56	Z56	X57	Y57	Z57	X58	Y58	Z58	X59	Y59	Z59	X60	Y60	Z60	X61	Y61	Z61	X62	Y62	Z62	X63	Y63	Z63	X64	Y64	Z64	X65	Y65	Z65	X66	Y66	Z66	X67	Y67	Z67	X68	Y68	Z68	X69	Y69	Z69	X70	Y70	Z70	X71	Y71	Z71	X72	Y72	Z72	X73	Y73	Z73	X74	Y74	Z74	X75	Y75	Z75	X76	Y76	Z76	X77	Y77	Z77	X78	Y78	Z78	X79	Y79	Z79	X80	Y80	Z80	X81	Y81	Z81	X82	Y82	Z82	X83	Y83	Z83	X84	Y84	Z84	X85	Y85	Z85	X86	Y86	Z86	X87	Y87	Z87	X88	Y88	Z88	X89	Y89	Z89	X90	Y90	Z90	X91	Y91	Z91	X92	Y92	Z92	X93	Y93	Z93	X94	Y94	Z94	X95	Y95	Z95	X96	Y96	Z96	X97	Y97	Z97	X98	Y98	Z98	X99	Y99	Z99	X100	Y100	Z100	X101	Y101	Z101	X102	Y102	Z102	X103	Y103	Z103	X104	Y104	Z104	X105	Y105	Z105	X106	Y106	Z106	X107	Y107	Z107	X108	Y108	Z108	X109	Y109	Z109	X110	Y110	Z110	X111	Y111	Z111	X112	Y112	Z112	X113	Y113	Z113	X114	Y114	Z114	X115	Y115	Z115	X116	Y116	Z116	X117	Y117	Z117	X118	Y118	Z118	X119	Y119	Z119	X120	Y120	Z120	X121	Y121	Z121	X122	Y122	Z122	X123	Y123	Z123	X124	Y124	Z124	X125	Y125	Z125	X126	Y126	Z126	X127	Y127	Z127	X128	Y128	Z128	X129	Y129	Z129	X130	Y130	Z130	X131	Y131	Z131	X132	Y132	Z132	X133	Y133	Z133	X134	Y134	Z134	X135	Y135	Z135	X136	Y136	Z136	X137	Y137	Z137	

1	0	-1410.598999023438	467.8694458007814	275.5189514160155	-1065.632568359375	410.7351989746094	255.0497283935546	-1437.185302734375	431.8028564453126	-71.86773681640634	-1356.041870117188	811.5553588867189	235.6612243652343	-1385.92041015625	63.86167526245126	255.7360229492187	-1376.935424804688	257.8144836425782	255.738555908203	-1410.059204101562	64.98243713378915	63.08483886718741	-1578.365234375	72.77649688720713	279.9008483886718	-1520.41162109375	82.7429199218751	285.4340820312499	-1194.30517578125	-14.4313659667968	122.6738891601562	-1679.29052734375	119.2875442504884	-54.71456909179697	-1417.013427734375	445.373260498047	276.0981445312499	-1321.77197265625	60.8900680541993	247.6810760498046	-1318.776977539062	125.541000366211	247.681915283203	-1329.818237304688	61.26365280151375	183.4640045166015	-1385.920288085938	63.86167526245126	255.7360229492187	-1345.227172851562	811.2623291015626	301.5128479003906	-1214.577758789062	794.4972534179689	279.9820251464843	-1366.8564453125	811.8483886718751	169.8096160888671	-1328.58935546875	943.6726684570314	299.3696899414062	-1182.048950195312	501.1038818359376	383.0084533691406	-873.3220825195312	650.7911987304688	341.0877380371093	-1212.854614257812	468.6524658203126	40.2638854980468	-1334.41259765625	810.9692382812501	367.3644104003906	-1070.75	71.67485046386726	422.8794250488281	-1052.594360351562	263.8731994628907	435.1501159667968	-1010.870361328125	77.75560760498053	239.0375061035156	-1253.794311523438	92.72770690917976	363.9558715820312	-1195.64306640625	99.52938079833991	369.8728332519531	-842.6820068359375	83.20459747314459	503.6612243652343	-1061.46923828125	106.5380096435548	16.75012207031244	-1182.8671875	476.9306945800782	382.2177124023437	-1009.7353515625	64.65722656250006	442.5205993652343	-1003.683471679688	128.7233428955079	446.6108398437499	-989.7754516601562	66.6841659545899	381.2399597167968	-1070.750122070312	71.67484283447273	422.8793945312499	-1314.678100585938	1276.040771484375	289.2846679687499	nan	nan	nan	nan	nan	nan	nan	nan	nan	-1415.814819335938	1350.41796875	296.2591552734374	-1456.0029296875	1048.628295898438	313.8244323730468	-1310.189453125	1276.0322265625	288.9628906249999	-1268.775024414062	1109.737915039062	300.9311828613281	-1443.237548828125	1264.485961914062	418.2448425292968	-1312.737915039062	895.0506591796876	186.244903564453	-1277.459838867188	894.0947265625001	401.0573730468749	-1469.580078125	915.9372558593751	279.7895202636718	-1455.220092773438	916.1452636718751	362.6899414062499	-1402.247680664062	563.6341552734376	148.9591674804687	-1415.380737304688	461.3823547363282	213.0365447998046	-1431.985229492188	457.038299560547	333.8090515136718	-1373.008178710938	438.5534362792969	268.0782165527343	-1397.052124023438	391.8298645019532	267.122833251953	-1527.744018554688	223.5859680175782	186.6536407470702	-1536.417358398438	86.42452239990244	251.1665954589843	-1515.01904296875	92.62615966796885	330.0773315429686	-1595.002197265625	46.07732009887705	289.8623657226561	-1393.53125	35.04672241210946	260.0577087402343	-1428.076904296875	13.53028106689462	213.739517211914	-1195.364013671875	559.2272338867189	492.4909667968749	-1176.255859375	507.2063598632813	447.4615173339843	-1160.981323242188	504.3674621582032	311.9916992187499	-1092.149658203125	505.8242492675782	388.7409057617187	-1110.083984375	435.8860168457032	396.0341796874999	-1223.56005859375	227.936737060547	459.1917419433593	-1208.960327148438	98.83374023437507	404.9216003417968	-1167.443481445312	120.4086151123048	334.8618164062499	-1253.936279296875	70.47946166992195	349.1460876464843	-1070.500610351562	53.05752182006842	411.5458374023437	-1103.9912109375	37.26794052124031	447.1672973632812	-1479.763671875	634.5042724609376	205.4280700683593	-1449.570678710938	582.9810180664064	182.8628997802734	-1485.47705078125	540.6428222656251	219.3798065185546	-1444.222534179688	282.1332397460939	290.7999267578124	-1454.640869140625	233.9038543701173	244.1515350341796	-1470.0908203125	192.6623992919923	297.8754882812499	-1437.644653320312	426.1196899414064	209.8539886474609	-1455.773681640625	428.2492065429689	331.5878601074218	-1273.510986328125	621.5314941406251	455.7265319824218	-1204.648803710938	605.8566284179689	458.3593139648437	-1216.526977539062	537.7624511718751	448.3887939453124	-1124.574584960938	356.1441955566407	377.2805480957031	-1150.411254882812	302.9814147949219	427.2988586425781	-1145.194213867188	257.8132324218751	372.0468139648437	-1176.574096679688	476.1747741699219	443.3060302734374	-1162.82373046875	460.3516235351563	317.2624511718749	-1394.7666015625	966.5371704101564	160.1080780029296	-1350.116577148438	976.4427490234376	447.1593627929687	-1313.248901367188	840.0586547851564	305.5043640136718	-1313.248901367188	8.041330317715521e-14	305.5043640136718	-5.24157190322876	5.916829586029053	2.738339185714721	5.465823650360106	-22.99387168884277	-6.610978603363037	4.661724567413332	18.0411548614502	-14.03788757324219	8.165097805919259e-16	0	-13.33461666107178	6.893885135650637	-1.337074756622315	-32.73139953613281	-7.422976970672607	-25.71959114074707	-27.56115913391113	0.4316993951797485	2.827221155166626	3.832709789276123	-2.343996935929101e-16	0	3.82803750038147	-3.177065610885621	-5.66287088394165	7.111062526702881	3.17706561088562	5.66287088394165	7.111062526702881	3.610256195068359	-4.10862922668457	0.1501070708036425	-3.610256195068359	4.10862922668457	0.1501070708036421	0.9200578331947326	-9.284567832946777	-7.161895751953125	-0.9200578331947317	9.284567832946777	-7.161895751953125	0.0007540684891806795	-7.149442195892334	87.34773254394531	-3.818602085113532	-17.73430442810059	83.43894958496094	nan	nan	nan	nan	nan	nan	nan	nan	nan	nan	nan	nan	nan	nan	nan	nan	nan	nan	nan	nan	nan	nan	nan	nan	nan	nan	nan	nan	nan	nan	nan	nan	nan	nan	nan	nan	nan	nan	nan	nan	nan	nan	nan	nan	nan	nan	nan	nan	nan	nan	nan	nan	nan	nan	nan	nan	nan	nan	nan	nan	nan	nan	nan	nan	nan	nan	nan	nan	nan	nan	nan	nan	nan	nan	nan	nan	nan	nan	nan	nan	nan	nan	nan	nan	nan	nan	nan	nan	nan	nan	
2	0.01	-1407.66162109375	467.5442810058595	275.3941650390624	-1063.405029296875	407.1859436035157	253.5493469238281	-1435.915405273438	432.0705566406251	-71.84664916992196	-1350.0244140625	810.6643066406251	235.6516723632812	-1385.751831054688	63.78591918945321	255.7040405273437	-1376.11669921875	257.7073364257813	255.9520416259765	-1410.057373046875	65.23990631103524	63.07603454589835	-1578.144165039062	73.3139648437501	280.0517578124999	-1520.15283203125	83.0788574218751	285.5463867187499	-1195.04248046875	-16.36666107177727	121.9032440185546	-1679.68017578125	120.7811737060548	-54.29876708984385	-1414.230712890625	445.0930786132814	275.9870300292968	-1321.621215820312	60.60989761352547	247.588165283203	-1318.409423828125	125.2503814697266	247.6708679199218	-1329.723022460938	61.09459686279305	183.3788146972655	-1385.751953125	63.7859535217286	255.7040100097655	-1338.937744140625	810.3132324218751	301.4577331542968	-1208.408569335938	793.3293457031251	279.3762512207031	-1361.111083984375	811.0153198242189	169.8455810546874	-1322.073974609375	942.6951293945314	299.3228149414062	-1176.205078125	499.6828613281251	381.2410583496093	-866.5697631835938	649.486572265625	347.3301391601562	-1200.588989257812	472.2832946777344	37.5553894042968	-1327.851196289062	809.9621582031251	367.2637939453124	-1049.072265625	73.5476379394532	422.3041687011718	-1037.8017578125	266.2345886230469	435.1538085937499	-989.8284301757812	82.34857177734381	238.3663787841796	-1232.875244140625	88.19963073730476	363.8048095703124	-1174.99365234375	97.06601715087898	369.6302795410156	-823.4197998046875	94.07476806640631	510.0378723144531	-1034.558837890625	107.6227951049805	18.21310424804681	-1176.13232421875	475.4930419921876	380.5434265136718	-987.8046264648438	68.66365051269537	441.8039550781249	-984.0477905273438	132.8926391601563	446.0871887207031	-968.056640625	71.59733581542974	380.4913635253906	-1049.072265625	73.54765319824226	422.3041381835937	-1308.41357421875	1275.0537109375	289.0733947753906	nan	nan	nan	nan	nan	nan	nan	nan	nan	-1409.5361328125	1349.457275390625	295.9685668945311	-1449.628540039062	1047.627319335938	314.2064208984374	-1303.92578125	1275.045288085938	288.7429504394531	-1262.483032226562	1108.805908203125	300.6979370117187	-1437.021728515625	1263.744384765625	417.8863220214843	-1306.777954101562	894.1118164062501	186.1024475097655	-1270.611572265625	892.9667358398439	400.7715148925781	-1463.24560546875	915.2739868164064	280.2304687499999	-1448.512329101562	915.3079833984376	363.0178222656249	-1398.890625	563.3605957031251	148.8719329833984	-1412.744506835938	461.1624450683595	212.9246826171874	-1429.060180664062	456.9250488281251	333.7797851562499	-1370.452514648438	437.8963317871094	267.9100036621093	-1394.684204101562	391.3930969238282	266.996612548828	-1526.756225585938	224.0816192626954	186.7400360107421	-1536.218994140625	86.87593078613291	251.319854736328	-1514.542724609375	93.06529998779307	330.1388244628905	-1594.883544921875	46.7988281250001	290.1752929687499	-1393.53076171875	35.01954269409188	260.0100097656249	-1428.213623046875	13.61633586883554	213.6843109130859	-1191.570434570312	556.2974853515626	491.0404052734374	-1171.619384765625	504.8355712890626	445.8739929199218	-1155.316772460938	502.7346801757813	310.6155090332031	-1086.980590820312	504.7090454101563	387.7455749511718	-1103.135498046875	435.3340454101563	395.0285339355468	-1209.259765625	224.6561889648438	458.1492919921874	-1188.904052734375	96.02032470703132	404.4390869140624	-1148.247924804688	119.128890991211	334.5785522460937	-1232.715209960938	66.1908035278321	348.6857299804687	-1048.978759765625	55.2524375915528	410.6500854492187	-1081.682495117188	38.12366104125983	446.3527221679687	-1475.626220703125	634.8305053710939	205.6804656982421	-1446.068237304688	583.1456298828126	182.876480102539	-1482.129028320312	541.0126342773439	219.5406646728515	-1442.617065429688	282.0913085937501	290.7632751464843	-1453.443481445312	233.948944091797	244.0778045654296	-1469.0693359375	192.8162689208985	297.8898315429686	-1435.265747070312	426.0669555664064	209.8395843505859	-1453.0615234375	428.3114624023439	331.6032104492186	-1269.060302734375	619.2869873046876	454.2760925292968	-1200.274780273438	603.3272705078126	457.3304138183593	-1212.292724609375	535.3864135742189	446.5100097656249	-1114.505493164062	355.8962707519532	376.6232910156249	-1138.758422851562	302.1369934082032	426.5588684082031	-1131.375122070312	257.1279907226563	371.6144714355468	-1171.11767578125	473.8275146484376	441.6805419921874	-1156.277587890625	458.4136047363282	315.8616943359374	-1388.75	965.6717529296876	160.1423797607421	-1343.142700195312	975.4491577148439	447.0819396972656	-1306.7939453125	839.0802612304689	305.1355895996093	-1306.7939453125	8.001805111360472e-14	305.1355895996093	-5.147515773773193	5.919268608093262	3.1690194606781	5.43513250350952	-22.89122200012207	-6.470270156860352	4.687316417694094	18.11371803283691	-14.26927757263184	8.295912955565539e-16	0	-13.54825401306152	6.74711847305298	-2.87448000907898	-32.70845794677734	-6.182196140289307	-25.86195373535156	-25.48091125488281	0.7047910690307617	3.99323296546936	4.015221118927002	-2.452635292796641e-16	0	4.005457401275635	-3.281294584274293	-5.810245513916016	7.212207794189453	3.281294584274292	5.810245513916016	7.212207794189453	3.690739154815673	-4.219771385192871	0.1652932018041613	-3.690739154815673	4.219771385192871	0.1652932018041608	0.9165461659431456	-9.524214744567871	-7.259648323059082	-0.9165461659431448	9.524214744567871	-7.259648323059082	0.0737762823700847	-7.203827857971191	87.16480255126953	-3.996107578277594	-17.60244941711426	85.44226837158203	nan	nan	nan	nan	nan	nan	nan	nan	nan	nan	nan	nan	nan	nan	nan	nan	nan	nan	nan	nan	nan	nan	nan	nan	nan	nan	nan	nan	nan	nan	nan	nan	nan	nan	nan	nan	nan	nan	nan	nan	nan	nan	nan	nan	nan	nan	nan	nan	nan	nan	nan	nan	nan	nan	nan	nan	nan	nan	nan	nan	nan	nan	nan	nan	nan	nan	nan	nan	nan	nan	nan	nan	nan	nan	nan	nan	nan	nan	nan	nan	nan	nan	nan	nan	nan	nan	nan	nan	nan	nan	
3	0.02	-1403.778076171875	467.1293945312501	275.2338256835936	-1060.436767578125	402.7880859375001	251.5451354980468	-1434.21728515625	432.4795532226564	-71.83532714843759	-1342.341796875	809.5382080078126	235.6610870361327	-1385.501953125	63.68154907226571	255.661163330078	-1374.947631835938	257.5545043945313	256.2093811035156	-1409.996215820312	65.5596466064454	63.06076049804679	-1577.822143554688	74.08194732666026	280.2211914062499	-1519.779296875	83.56314086914072	285.6720581054686	-1195.994873046875	-18.84277343749993	120.8923645019531	-1680.116943359375	122.816146850586	-53.77853393554697	-1410.549438476562	444.7389221191407	275.8431701660155	-1321.395141601562	60.21475601196297	247.4744262695312	-1317.877075195312	124.839080810547	247.6571197509765	-1329.559936523438	60.84073638916023	183.2742919921874	-1385.501953125	63.68153762817391	255.661163330078	-1330.920166015625	809.1235351562501	301.4095153808593	-1200.538330078125	791.9024658203126	278.6514587402343	-1353.763305664062	809.9526977539064	169.9127044677734	-1313.812133789062	941.4739990234376	299.2721557617187	-1168.96728515625	497.8012390136719	379.1187438964843	-858.2685546875	647.3037109375	355.0019836425781	-1185.487182617188	476.5462646484376	34.52960205078118	-1319.498657226562	808.7088623046876	367.1578979492187	-1022.681701660156	76.45912933349615	421.6262817382812	-1020.014221191406	269.4071044921876	435.2041931152343	-964.3198852539062	88.60256958007818	237.5968322753906	-1207.092041015625	83.09322357177741	363.5814514160156	-1149.651611328125	94.51894378662116	369.3165283203124	-800.625244140625	107.6180877685547	518.1566162109375	-1001.343627929688	110.1087341308594	20.16595458984369	-1167.809692382812	473.6360473632813	378.5313720703124	-961.211669921875	74.24773406982428	440.9745483398437	-960.322509765625	138.5637207031251	445.5005493164062	-941.7577514648438	78.29556274414068	379.6314086914062	-1022.681762695312	76.45910644531256	421.6262817382812	-1300.480346679688	1273.8193359375	288.8699035644531	nan	nan	nan	nan	nan	nan	nan	nan	nan	-1401.602783203125	1348.246337890625	295.6574707031249	-1441.555908203125	1046.370971679688	314.7047119140624	-1295.993286132812	1273.81201171875	288.5291137695312	-1254.441528320312	1107.6669921875	300.4414367675781	-1429.162231445312	1262.795532226562	417.4851074218749	-1299.184936523438	892.9338989257814	185.9605102539062	-1261.931640625	891.5816040039064	400.4095764160156	-1455.218872070312	914.4176635742189	280.8127441406249	-1440.009033203125	914.2209472656251	363.4519958496093	-1394.532836914062	563.0298461914064	148.754425048828	-1409.255126953125	460.8945312500001	212.7828369140624	-1425.181640625	456.7910156250001	333.7298889160155	-1367.041137695312	437.1119079589844	267.6799621582031	-1391.54443359375	390.8414611816407	266.8497314453124	-1525.418823242188	224.7655334472657	186.8374481201171	-1535.921020507812	87.51486206054697	251.4985351562499	-1513.901245117188	93.66054534912119	330.2011108398436	-1594.70751953125	47.81085205078135	290.546173095703	-1393.523315429688	34.98804855346688	259.9516296386718	-1428.393920898438	13.73108482360849	213.6264343261718	-1186.780639648438	552.5968017578126	489.3096313476562	-1165.860473632812	501.7983703613282	443.9212646484374	-1148.3486328125	500.5977172851563	308.8407897949218	-1080.599853515625	503.2705383300782	386.4313354492187	-1094.560791015625	434.6420898437501	393.7376098632812	-1191.69921875	220.8399200439454	456.7996826171874	-1164.30029296875	92.97911071777351	403.8026733398437	-1124.721435546875	117.9340820312501	334.1654357910156	-1206.595825195312	61.33831787109382	348.0645141601562	-1022.727111816406	58.49495697021491	409.6053161621093	-1054.429077148438	39.71649932861335	445.3555297851562	-1470.269897460938	635.2464599609376	206.0161743164062	-1441.49609375	583.3383789062501	182.9232025146484	-1477.742553710938	541.4832153320314	219.7779235839843	-1440.46923828125	282.048797607422	290.7018127441405	-1451.839111328125	234.0433654785157	243.9734802246093	-1467.692504882812	193.0343017578126	297.8865966796874	-1432.117797851562	426.0220031738282	209.8119354248046	-1449.454223632812	428.4006958007814	331.6297607421874	-1263.454711914062	616.4974365234376	452.6000061035156	-1194.769897460938	600.1151733398439	456.1224060058593	-1207.03125	532.3945312500001	444.2882690429687	-1102.136108398438	355.6537780761719	375.7762451171874	-1124.47802734375	301.2021484375001	425.6029663085937	-1114.419555664062	256.4789123535157	371.0368652343749	-1164.369384765625	470.8240661621094	439.6556701660156	-1148.177734375	455.9571533203126	314.0821533203124	-1381.086059570312	964.5791625976564	160.2108612060546	-1334.297729492188	974.2061157226564	446.9956970214843	-1298.671264648438	837.8892211914064	304.7118530273437	-1298.671264648438	7.952068036981772e-14	304.7118530273437	-5.01406192779541	5.89532995223999	3.712425470352172	5.396191596984862	-22.75131988525391	-6.326126098632812	4.722751140594484	18.21408653259277	-14.55249881744385	8.455259665136679e-16	0	-13.80848693847656	6.558675765991213	-4.758755207061768	-32.6246223449707	-4.779294490814209	-26.00344848632812	-22.86631965637207	1.047917366027832	5.453342437744141	4.179789066314697	-2.547777963126727e-16	0	4.160837173461914	-3.39890480041504	-5.994615077972412	7.334302425384521	3.398904800415039	5.994615077972412	7.334302425384521	3.784582138061523	-4.352878093719482	0.1957063525915148	-3.784582138061523	4.352878093719482	0.1957063525915144	0.9175650477409362	-9.818867683410645	-7.365371227264404	-0.9175650477409353	9.818867683410645	-7.365371227264404	0.1630699783563556	-7.267020702362061	86.90455627441406	-4.219708919525153	-17.46126556396484	87.93967437744141	nan	nan	nan	nan	nan	nan	nan	nan	nan	nan	nan	nan	nan	nan	nan	nan	nan	nan	nan	nan	nan	nan	nan	nan	nan	nan	nan	nan	nan	nan	nan	nan	nan	nan	nan	nan	nan	nan	nan	nan	nan	nan	nan	nan	nan	nan	nan	nan	nan	nan	nan	nan	nan	nan	nan	nan	nan	nan	nan	nan	nan	nan	nan	nan	nan	nan	nan	nan	nan	nan	nan	nan	nan	nan	nan	nan	nan	nan	nan	nan	nan	nan	nan	nan	nan	nan	nan	nan	nan	nan	
